<svg xmlns="http://www.w3.org/2000/svg" width="64" height="64" viewBox="0 0 64 64">
  <rect width="64" height="64" rx="18" fill="#07111d"/>
  <path d="M16 12h32l8 8v24l-8 8H16l-8-8V20l8-8Z" fill="none" stroke="#16f4f4" stroke-width="4.5" stroke-linejoin="round"/>
  <path d="M6 25l11 3.5 6 4.5-5 2-7 6-2-8 2-8Zm52 0-11 3.5-6 4.5 5 2 7 6 2-8-2-8Z" fill="#16f4f4"/>
  <path d="M10 28.5 18 31l4 3-3 1.2-5 4.1m35-10.8L46 31l-4 3 3 1.2 5 4.1" fill="none" stroke="#8effff" stroke-width="1.4" stroke-linecap="round" stroke-linejoin="round"/>
  <path d="M32 15l6 4v4l-6 4-6-4v-4l6-4Zm0 22 6 4v4l-6 4-6-4v-4l6-4Z" fill="#8effff"/>
  <path d="M32 18l11 8v12l-11 8-11-8V26l11-8Z" fill="none" stroke="#8effff" stroke-width="2"/>
  <path d="M32 22 38.5 27v10L32 42l-6.5-5V27L32 22Z" fill="#ddffff"/>
  <path d="M25 19.5h14M23 44.5h18" stroke="#66ffff" stroke-width="1.6" stroke-linecap="round"/>
  <circle cx="32" cy="32" r="2.2" fill="#0b2431"/>
</svg>
