<svg xmlns="http://www.w3.org/2000/svg" width="64" height="64" viewBox="0 0 64 64">
  <rect width="64" height="64" rx="18" fill="#07111d"/>
  <path d="M16 12h32l8 8v24l-8 8H16l-8-8V20l8-8Z" fill="none" stroke="#39ff59" stroke-width="4.5" stroke-linejoin="round"/>
  <path d="M19 16h26l5 5v22l-5 5H19l-5-5V21l5-5Z" fill="none" stroke="#0b250f" stroke-width="3" stroke-linejoin="round"/>
  <path d="M23 20h18l3 3v18l-3 3H23l-3-3V23l3-3Z" fill="none" stroke="#1d6d2d" stroke-width="1.8" stroke-linejoin="round"/>
  <circle cx="32" cy="32" r="9" fill="#a4ffb6" stroke="#f0fff2" stroke-width="2"/>
  <circle cx="32" cy="32" r="4.8" fill="#d7ffe1"/>
  <path d="M32 24.8v14.4M24.8 32h14.4" stroke="#47d86c" stroke-width="1.8" stroke-linecap="round"/>
  <circle cx="23" cy="23" r="1.3" fill="#61ff8f"/>
  <circle cx="41" cy="41" r="1.3" fill="#61ff8f"/>
</svg>
