<svg xmlns="http://www.w3.org/2000/svg" width="64" height="64" viewBox="0 0 64 64">
  <rect width="64" height="64" rx="18" fill="#07111d"/>
  <path d="M17 11h30l9 9v24l-9 9H17l-9-9V20l9-9Z" fill="none" stroke="#a624ff" stroke-width="4.5" stroke-linejoin="round"/>
  <path d="M25 8h14l6 5v5H19v-5l6-5Zm0 48h14l6-5v-5H19v5l6 5Z" fill="none" stroke="#7c18d8" stroke-width="3" stroke-linejoin="round"/>
  <path d="M18 18h28l6 6v16l-6 6H18l-6-6V24l6-6Z" fill="none" stroke="#47106e" stroke-width="1.8" stroke-linejoin="round"/>
  <path d="M32 18l11 8v12l-11 8-11-8V26l11-8Z" fill="#c37bff" stroke="#faeeff" stroke-width="2"/>
  <path d="M32 22l6.6 4.8v10.4L32 42l-6.6-4.8V26.8L32 22Z" fill="#efcfff"/>
  <path d="M32 17.5 36 23H28l4-5.5Zm0 29 4 5.5H28l4-5.5Z" fill="#d497ff"/>
  <circle cx="21.8" cy="32" r="1.4" fill="#d497ff"/>
  <circle cx="42.2" cy="32" r="1.4" fill="#d497ff"/>
</svg>
