<svg xmlns="http://www.w3.org/2000/svg" width="64" height="64" viewBox="0 0 64 64">
  <rect width="64" height="64" rx="18" fill="#07111d"/>
  <path d="M16 14h32l9 9v19l-9 9H16l-9-9V23l9-9Z" fill="none" stroke="#ffd319" stroke-width="4.5" stroke-linejoin="round"/>
  <path d="M4 24l12 3 8 6-5 2-8 8-2-10 1-9 1-4Zm56 0-12 3-8 6 5 2 8 8 2-10-1-9-1-4Z" fill="#ffd319"/>
  <path d="M10 27.5 18 29.5l5 3.5-3 1.2-6 5.8m40-12.5L46 29.5 41 33l3 1.2 6 5.8" fill="none" stroke="#ffe884" stroke-width="1.5" stroke-linecap="round" stroke-linejoin="round"/>
  <path d="M22 14l4-6 6 6 6-6 4 6 5 3-3 4H20l-3-4 5-3Z" fill="#ffe36a" stroke="#fff6c3" stroke-width="1.8" stroke-linejoin="round"/>
  <path d="M32 19l10 6v14L32 47 22 39V25l10-6Z" fill="#ffe36a" stroke="#fff8df" stroke-width="2"/>
  <path d="M32 23l6.4 3.8v10.4L32 43l-6.4-5.8V26.8L32 23Z" fill="#fff0a3"/>
  <path d="M24 20.5h16M21.5 43.5h21" stroke="#ffec8a" stroke-width="1.7" stroke-linecap="round"/>
  <path d="M28 15.4 32 11l4 4.4" fill="none" stroke="#fff7d5" stroke-width="1.5" stroke-linecap="round" stroke-linejoin="round"/>
  <circle cx="32" cy="14" r="2.7" fill="#fff1a0"/>
  <circle cx="32" cy="32" r="2.1" fill="#5f4300"/>
</svg>
