<svg xmlns="http://www.w3.org/2000/svg" width="64" height="64" viewBox="0 0 64 64">
  <rect width="64" height="64" rx="18" fill="#07111d"/>
  <path d="M17 11h30l9 9v24l-9 9H17l-9-9V20l9-9Z" fill="none" stroke="#ff2816" stroke-width="4.5" stroke-linejoin="round"/>
  <path d="M10 24l5-3v22l-5-3V24Zm39-3 5 3v16l-5 3V21Z" fill="#ff2816"/>
  <path d="M18 18h28l6 6v16l-6 6H18l-6-6V24l6-6Z" fill="none" stroke="#66110a" stroke-width="1.8" stroke-linejoin="round"/>
  <path d="M32 16l10 6v15l-10 11-10-11V22l10-6Z" fill="#ff7f5b" stroke="#fff0ea" stroke-width="2"/>
  <path d="M32 21l5.8 3.6v11l-5.8 6.3-5.8-6.3v-11L32 21Z" fill="#ffd0c4"/>
  <path d="M24 17.8 32 14l8 3.8-1.8 3.2H25.8L24 17.8Zm0 28.4L32 50l8-3.8-1.8-3.2H25.8L24 46.2Z" fill="#ff765a"/>
  <path d="M20.5 24.5h4.5m19 0h4.5M20.5 39.5h4.5m19 0h4.5" stroke="#ff765a" stroke-width="1.5" stroke-linecap="round"/>
</svg>
