<svg xmlns="http://www.w3.org/2000/svg" width="64" height="64" viewBox="0 0 64 64">
  <rect width="64" height="64" rx="18" fill="#07111d"/>
  <path d="M17 11h30l9 9v24l-9 9H17l-9-9V20l9-9Z" fill="none" stroke="#ffb41f" stroke-width="4.5" stroke-linejoin="round"/>
  <path d="M24 11h16l3 4H21l3-4Zm0 42h16l3-4H21l3 4Z" fill="#ffb41f"/>
  <path d="M18 18h28l4 4v20l-4 4H18l-4-4V22l4-4Z" fill="none" stroke="#5d3b07" stroke-width="1.8" stroke-linejoin="round"/>
  <circle cx="32" cy="32" r="11" fill="#1d1720" stroke="#ffe2a3" stroke-width="2.2"/>
  <circle cx="32" cy="32" r="6.2" fill="#ffd569"/>
  <path d="M32 22.5 34.7 28l6 .5-4.6 4 1.5 5.7-5.6-3.1-5.6 3.1 1.5-5.7-4.6-4 6-.5 2.7-5.5Z" fill="#fff1a8" stroke="#b57712" stroke-width="1.2" stroke-linejoin="round"/>
  <circle cx="20" cy="32" r="1.2" fill="#ffcb52"/>
  <circle cx="44" cy="32" r="1.2" fill="#ffcb52"/>
</svg>
