<svg xmlns="http://www.w3.org/2000/svg" width="64" height="64" viewBox="0 0 64 64">
  <rect width="64" height="64" rx="18" fill="#07111d"/>
  <path d="M16 12h30l8 5 4 7v16l-4 7-8 5H16l-8-8V20l8-8Z" fill="none" stroke="#1ba2ff" stroke-width="4.5" stroke-linejoin="round"/>
  <path d="M24 7h16l6 4v4H18v-4l6-4Zm0 50h16l6-4v-4H18v4l6 4Z" fill="none" stroke="#1ba2ff" stroke-width="3.2" stroke-linejoin="round"/>
  <path d="M18 18h28l6 6v16l-6 6H18l-6-6V24l6-6Z" fill="none" stroke="#103b67" stroke-width="1.8" stroke-linejoin="round"/>
  <path d="M32 18l10 14-10 14-10-14 10-14Z" fill="#71d8ff" stroke="#eefbff" stroke-width="2"/>
  <path d="M32 23l5.2 9L32 41l-5.2-9 5.2-9Z" fill="#d5f8ff"/>
  <path d="M32 18v28M22 32h20" stroke="#35b8ff" stroke-width="1.4" opacity=".85"/>
  <circle cx="32" cy="32" r="2.2" fill="#0b1e31"/>
</svg>
